<svg width="132" height="132" viewBox="0 0 132 132" fill="none" xmlns="http://www.w3.org/2000/svg">
<g clip-path="url(#clip0_495_450)">
<path d="M132 66C132 102.451 102.451 132 66 132C29.5492 132 0 102.451 0 66C0 29.5492 29.5492 0 66 0C102.451 0 132 29.5492 132 66Z" fill="#D9D9D9"/>
<path d="M91.9448 47.7931C91.9448 62.122 80.3289 73.7379 66 73.7379C51.6711 73.7379 40.0552 62.122 40.0552 47.7931C40.0552 33.4642 51.6711 21.8483 66 21.8483C80.3289 21.8483 91.9448 33.4642 91.9448 47.7931Z" fill="#B4B4B4"/>
<path d="M16.1034 109.203C25.4223 90.8587 44.4709 78.2897 66.4552 78.2897C88.1733 78.2897 107.026 90.5562 116.464 108.539C104.357 122.887 86.2429 132 66 132C46.071 132 28.205 123.167 16.1034 109.203Z" fill="#B4B4B4"/>
</g>
<defs>
<clipPath id="clip0_495_450">
<rect width="132" height="132" fill="white"/>
</clipPath>
</defs>
</svg>
