<svg width="6" height="38" viewBox="0 0 6 38" fill="none" xmlns="http://www.w3.org/2000/svg">
<path d="M3 20C3.26522 20 3.51957 19.8946 3.70711 19.7071C3.89464 19.5196 4 19.2652 4 19C4 18.7348 3.89464 18.4804 3.70711 18.2929C3.51957 18.1054 3.26522 18 3 18C2.73478 18 2.48043 18.1054 2.29289 18.2929C2.10536 18.4804 2 18.7348 2 19C2 19.2652 2.10536 19.5196 2.29289 19.7071C2.48043 19.8946 2.73478 20 3 20ZM3 36C3.26522 36 3.51957 35.8946 3.70711 35.7071C3.89464 35.5196 4 35.2652 4 35C4 34.7348 3.89464 34.4804 3.70711 34.2929C3.51957 34.1054 3.26522 34 3 34C2.73478 34 2.48043 34.1054 2.29289 34.2929C2.10536 34.4804 2 34.7348 2 35C2 35.2652 2.10536 35.5196 2.29289 35.7071C2.48043 35.8946 2.73478 36 3 36ZM3 4C3.26522 4 3.51957 3.89464 3.70711 3.70711C3.89464 3.51957 4 3.26522 4 3C4 2.73478 3.89464 2.48043 3.70711 2.29289C3.51957 2.10536 3.26522 2 3 2C2.73478 2 2.48043 2.10536 2.29289 2.29289C2.10536 2.48043 2 2.73478 2 3C2 3.26522 2.10536 3.51957 2.29289 3.70711C2.48043 3.89464 2.73478 4 3 4Z" fill="black" stroke="black" stroke-width="3" stroke-linecap="round" stroke-linejoin="round"/>
</svg>
